<svg width="92" height="74" viewBox="0 0 92 74" fill="none" xmlns="http://www.w3.org/2000/svg">
<path d="M9.11188 9.14288V64.0001H82.0069V9.14288H9.11188ZM5.84072 0H85.2781C87.3101 0 88.0436 0.210285 88.7862 0.612572C89.5288 1.01029 90.112 1.59543 90.5083 2.34058C90.9093 3.08572 91.1188 3.82172 91.1188 5.86058V67.2824C91.1188 69.3213 90.9093 70.0573 90.5083 70.8024C90.1199 71.5386 89.5199 72.1406 88.7862 72.5304C88.0436 72.9327 87.3101 73.143 85.2781 73.143H5.84072C3.80877 73.143 3.07526 72.9327 2.33264 72.5304C1.59896 72.1406 0.998958 71.5386 0.610496 70.8024C0.209574 70.0573 0 69.3213 0 67.2824V5.86058C0 3.82172 0.209574 3.08572 0.610496 2.34058C0.998958 1.6044 1.59896 1.00235 2.33264 0.612572C3.07526 0.210285 3.80877 0 5.84072 0ZM55.9561 41.1429H71.6103C73.6422 41.1429 74.3758 41.3532 75.1184 41.7555C75.861 42.1532 76.4441 42.7384 76.8405 43.4835C77.2414 44.2287 77.451 44.9647 77.451 47.0035V53.5681C77.451 55.607 77.2414 56.343 76.8405 57.0881C76.452 57.8243 75.8521 58.4263 75.1184 58.8161C74.3758 59.2184 73.6422 59.4287 71.6103 59.4287H55.9561C53.9241 59.4287 53.1906 59.2184 52.448 58.8161C51.7143 58.4263 51.1143 57.8243 50.7259 57.0881C50.3249 56.343 50.1154 55.607 50.1154 53.5681V47.0035C50.1154 44.9647 50.3249 44.2287 50.7259 43.4835C51.1143 42.7473 51.7143 42.1453 52.448 41.7555C53.1906 41.3532 53.9241 41.1429 55.9561 41.1429ZM9.11188 18.2858H82.0069V36.5715H9.11188V18.2858Z" fill="white"/>
</svg>
