<svg width="89" height="88" viewBox="0 0 89 88" fill="none" xmlns="http://www.w3.org/2000/svg">
<path d="M53.1632 51.5389L53.9357 50.9229C57.3211 48.186 59.5686 47.0838 63.1974 47.7923C65.2783 48.2286 67.293 48.9307 69.1908 49.881C71.9656 51.265 74.6065 52.8974 77.0805 54.7575C80.0538 56.948 81.819 58.4623 84.811 61.1854C90.5469 66.4046 90.0552 73.1567 85.3823 78.9872C82.2264 82.9236 77.0337 86.4617 73.3955 87.3231C60.9405 90.2592 47.034 83.6924 27.9535 66.5991C9.98272 50.5061 0 33.0378 0 18.9547C0 6.68238 10.8911 -0.000244141 20.0544 -0.000244141C26.7174 -0.000244141 30.2385 4.49652 40.7363 22.0066C42.1269 24.3267 41.8787 26.7303 40.7269 29.1245C40.151 30.3332 39.6312 31.1159 38.1703 33.1397L37.866 33.5657C37.3979 34.1919 36.9695 34.8461 36.583 35.5247C39.4158 40.943 46.5189 48.0007 52.6434 51.9279C52.7839 51.8306 52.9525 51.701 53.1632 51.5389ZM32.0131 25.6234C24.8163 13.6892 21.3093 9.26188 20.0544 9.26188C18.7761 9.26188 15.9059 10.0584 13.7426 11.3875C10.8958 13.1335 9.36466 15.5092 9.36466 18.9547C9.36466 30.0322 18.0551 45.2406 34.2372 59.7312C51.2387 74.9582 62.6261 80.3395 71.2229 78.3111C72.6931 77.9637 76.1253 75.625 78.045 73.2308C79.9742 70.8226 80.0725 69.4611 78.4711 68.0023C75.7086 65.4923 74.1259 64.1307 71.4898 62.1903C69.4774 60.6727 67.3304 59.3382 65.075 58.203C63.9083 57.6091 62.67 57.1641 61.39 56.8785C61.4602 56.8924 61.1699 57.0359 59.8542 58.0965C59.4422 58.4345 59.2174 58.6105 58.9692 58.805C55.4107 61.5837 52.0628 62.5006 48.1297 60.0647C40.1744 55.1326 31.1047 46.0742 27.6679 38.558C26.0384 34.9921 27.106 32.5654 30.2198 28.2168L30.5428 27.7676C31.3295 26.6747 31.7509 26.068 32.0131 25.6234V25.6234Z" fill="white"/>
</svg>
