<svg width="105" height="87" viewBox="0 0 105 87" fill="none" xmlns="http://www.w3.org/2000/svg">
<path d="M85.3214 29.7719C96.8811 33.8393 105 43.4323 105 54.6178C105 61.3377 102.068 67.4868 97.2142 72.2065L100.579 81.0369C100.873 81.8088 100.945 82.6489 100.786 83.4602C100.628 84.2716 100.245 85.0212 99.6817 85.6228C99.1186 86.2243 98.3984 86.6533 97.604 86.8603C96.8096 87.0673 95.9734 87.0439 95.1916 86.7927L77.845 81.2288C76.2193 81.4373 74.582 81.5415 72.9432 81.5405C62.9635 81.5405 54.0451 77.7081 48.1677 71.7029C43.829 72.1289 39.4542 72.0016 35.1471 71.324L16.8343 77.1997C16.0526 77.4509 15.2163 77.4743 14.4219 77.2673C13.6275 77.0603 12.9073 76.6313 12.3443 76.0298C11.7813 75.4282 11.3983 74.6786 11.2396 73.8672C11.0809 73.0559 11.1528 72.2158 11.4471 71.4439L14.7071 62.8917C5.8648 56.3013 0.291992 46.6796 0.291992 35.9738C0.291992 16.1067 19.4708 0 43.1232 0C64.258 0 81.8188 12.8594 85.3214 29.7719ZM74.7421 27.7334C70.3924 17.3921 58.0855 9.593 43.1232 9.593C24.3822 9.593 9.81003 21.8289 9.81003 35.9738C9.81003 43.2165 13.5935 50.1282 20.3655 55.179L26.1858 59.515L24.187 64.7768L34.4046 61.4959L36.6223 61.8461C38.4593 62.1339 40.3344 62.3066 42.2285 62.3449C41.3415 59.8667 40.8874 57.2523 40.8864 54.6178C40.8864 39.7486 55.2396 27.6902 72.9432 27.6902C73.5476 27.6902 74.1472 27.7046 74.7421 27.7334V27.7334ZM86.0686 69.7124L90.6039 65.2996C93.7972 62.1962 95.4819 58.4694 95.4819 54.6178C95.4819 45.4708 85.7354 37.2832 72.9432 37.2832C60.1509 37.2832 50.4045 45.4708 50.4045 54.6178C50.4045 63.7599 60.1509 71.9475 72.9432 71.9475C74.1901 71.9475 75.4274 71.8708 76.6362 71.7125L78.7254 71.4439L87.8437 74.3698L86.0686 69.7172V69.7124Z" fill="white"/>
</svg>
