<svg width="83" height="103" viewBox="0 0 83 103" fill="none" xmlns="http://www.w3.org/2000/svg">
<path d="M10.2979 10.2803V92.5231H72.0856V35.0971L47.2264 10.2803H10.2979ZM5.14897 0H51.4897L82.3835 30.841V97.6632C82.3835 99.0265 81.8411 100.334 80.8754 101.298C79.9098 102.262 78.6002 102.803 77.2346 102.803H5.14897C3.78338 102.803 2.47372 102.262 1.5081 101.298C0.54248 100.334 0 99.0265 0 97.6632V5.14017C0 3.77691 0.54248 2.46949 1.5081 1.50552C2.47372 0.541552 3.78338 0 5.14897 0ZM46.3407 10.2803H61.6744L72.0856 20.8434V35.9812H51.4897C50.1241 35.9812 48.8145 35.4396 47.8488 34.4757C46.8832 33.5117 46.3407 32.2043 46.3407 30.841V10.2803ZM29.9516 67.1358H27.2381C24.9983 67.1358 23.1704 65.6657 23.1704 63.3115C23.1704 61.0755 24.9416 59.5437 27.2381 59.5437H29.0093C28.5356 57.5391 28.1855 55.7194 28.1855 53.9512C28.1855 46.9503 32.4849 41.1214 41.5676 41.1214C47.5199 41.1214 51.3507 43.5886 53.5339 45.8298C54.888 47.1251 55.13 48.1274 55.13 49.0064C55.1336 49.531 55.0317 50.051 54.8304 50.5356C54.629 51.0203 54.3323 51.4596 53.9578 51.8277C53.5833 52.1958 53.1387 52.4851 52.6502 52.6786C52.1617 52.8721 51.6393 52.9657 51.1138 52.954C49.9965 52.954 49.1109 52.4246 48.112 51.6587C46.1657 50.0139 44.3944 48.9498 41.4492 48.9498C37.4382 48.9498 36.1458 51.6587 36.1458 53.833C36.1458 55.4264 36.7328 57.3643 37.0829 59.5437H43.689C45.9288 59.5437 47.7567 61.0138 47.7567 63.3115C47.7567 65.5474 45.9288 67.1358 43.689 67.1358H37.9119C38.0869 69.4334 37.4382 72.4918 36.2024 74.9642H52.2363C54.3577 74.9642 56.2474 76.789 56.2474 79.025C56.2448 79.5446 56.1384 80.0584 55.9344 80.5365C55.7305 81.0145 55.433 81.4472 55.0595 81.809C54.686 82.1709 54.2439 82.4548 53.7591 82.644C53.2744 82.8332 52.7567 82.9239 52.2363 82.9109H32.0781C28.8342 82.9109 26.9497 80.9063 26.9497 78.2025C26.9497 76.9689 27.305 76.3778 28.1288 74.6096C29.3079 72.1988 30.0751 69.6699 29.9567 67.1358H29.9516Z" fill="white"/>
</svg>
