<svg width="114" height="76" viewBox="0 0 114 76" fill="none" xmlns="http://www.w3.org/2000/svg">
<path d="M91.9125 28.69C90.317 20.6042 85.9636 13.3231 79.5961 8.09042C73.2285 2.85776 65.2418 -0.00186315 57 9.10749e-07C43.2725 9.10749e-07 31.35 7.79 25.4125 19.19C18.4311 19.9445 11.9748 23.2522 7.28407 28.4778C2.59336 33.7033 -0.000815583 40.478 1.92341e-07 47.5C1.92341e-07 63.2225 12.7775 76 28.5 76H90.25C103.36 76 114 65.36 114 52.25C114 39.71 104.262 29.545 91.9125 28.69ZM90.25 66.5H28.5C18.0025 66.5 9.5 57.9975 9.5 47.5C9.5 37.0025 18.0025 28.5 28.5 28.5H31.8725C35.0075 17.5275 45.03 9.5 57 9.5C71.44 9.5 83.125 21.185 83.125 35.625V38H90.25C98.135 38 104.5 44.365 104.5 52.25C104.5 60.135 98.135 66.5 90.25 66.5Z" fill="white"/>
</svg>
