<svg width="83" height="83" viewBox="0 0 83 83" fill="none" xmlns="http://www.w3.org/2000/svg">
<path fill-rule="evenodd" clip-rule="evenodd" d="M72.5597 5.45192C72.5597 4.07631 73.1097 2.75703 74.0887 1.78432C75.0676 0.811611 76.3954 0.265151 77.7799 0.265151C79.1643 0.265151 80.4921 0.811611 81.4711 1.78432C82.45 2.75703 83 4.07631 83 5.45192V26.199C83 27.5746 82.45 28.8939 81.4711 29.8666C80.4921 30.8393 79.1643 31.3858 77.7799 31.3858H56.8994C55.5149 31.3858 54.1871 30.8393 53.2082 29.8666C52.2292 28.8939 51.6792 27.5746 51.6792 26.199C51.6792 24.8234 52.2292 23.5041 53.2082 22.5314C54.1871 21.5587 55.5149 21.0122 56.8994 21.0122H65.1785L63.649 19.4925C57.7717 13.6615 49.8056 10.3864 41.5 10.3864C33.1944 10.3864 25.2283 13.6615 19.351 19.4925C16.4878 22.3085 14.2165 25.6619 12.6692 29.3578C11.8967 31.2302 9.97566 32.3298 7.98157 32.3298C7.11467 32.3293 6.26148 32.1147 5.49873 31.7054C4.73599 31.296 4.0876 30.7047 3.61188 29.9846C3.13615 29.2646 2.84802 28.4383 2.77338 27.5801C2.69874 26.7219 2.83994 25.8588 3.18427 25.0683C5.24632 20.2417 8.22976 15.8577 11.9697 12.1584C15.8469 8.30387 20.4505 5.24615 25.5174 3.15996C30.5843 1.07377 36.0153 0 41.5 0C46.9847 0 52.4156 1.07377 57.4826 3.15996C62.5495 5.24615 67.1531 8.30387 71.0303 12.1584L72.5597 13.6781V5.45192ZM10.4403 69.3219V77.5481C10.4403 78.9237 9.89027 80.243 8.91131 81.2157C7.93235 82.1884 6.60459 82.7349 5.22013 82.7349C3.83566 82.7349 2.5079 82.1884 1.52894 81.2157C0.549975 80.243 0 78.9237 0 77.5481V56.801C0 55.4254 0.549975 54.1061 1.52894 53.1334C2.5079 52.1607 3.83566 51.6142 5.22013 51.6142H26.1006C27.4851 51.6142 28.8128 52.1607 29.7918 53.1334C30.7708 54.1061 31.3208 55.4254 31.3208 56.801C31.3208 58.1766 30.7708 59.4959 29.7918 60.4686C28.8128 61.4413 27.4851 61.9878 26.1006 61.9878H17.8215L19.351 63.5075C25.2283 69.3385 33.1944 72.6136 41.5 72.6136C49.8056 72.6136 57.7717 69.3385 63.649 63.5075C66.4884 60.672 68.7563 57.3236 70.3308 53.6422C71.0616 51.8061 73.0243 50.6702 75.0184 50.6702C78.7769 50.6702 81.293 54.4825 79.8157 57.9317C77.7537 62.7583 74.7702 67.1423 71.0303 70.8416C67.1531 74.6961 62.5495 77.7539 57.4826 79.84C52.4156 81.9262 46.9847 83 41.5 83C36.0153 83 30.5843 81.9262 25.5174 79.84C20.4505 77.7539 15.8469 74.6961 11.9697 70.8416L10.4403 69.3219Z" fill="white"/>
</svg>
