<svg width="104" height="87" viewBox="0 0 104 87" fill="none" xmlns="http://www.w3.org/2000/svg">
<path d="M77.1443 28.8842H98.985C99.7211 28.8842 100.448 29.051 101.109 29.372C101.771 29.6929 102.35 30.1595 102.803 30.7364C103.256 31.3132 103.57 31.9851 103.723 32.7009C103.875 33.4168 103.861 34.1577 103.682 34.8675L91.5756 83.0036C91.3133 84.0445 90.7086 84.9685 89.8575 85.6287C89.0064 86.2889 87.9578 86.6475 86.8782 86.6475H16.9494C15.8698 86.6475 14.8212 86.2889 13.9701 85.6287C13.119 84.9685 12.5143 84.0445 12.2519 83.0036L0.145154 34.8675C-0.0337233 34.1577 -0.0474621 33.4168 0.104981 32.7009C0.257424 31.9851 0.572038 31.3132 1.02491 30.7364C1.47778 30.1595 2.05699 29.6929 2.71851 29.372C3.38004 29.051 4.10647 28.8842 4.84259 28.8842H26.7075L47.9573 1.85095C48.426 1.25377 49.03 0.775075 49.72 0.453864C50.4101 0.132653 51.1667 -0.021994 51.9283 0.00251959C52.6891 -0.0212283 53.4448 0.133789 54.1339 0.454971C54.8231 0.776153 55.4263 1.25444 55.8945 1.85095L77.1395 28.8842H77.1443ZM64.8438 28.8842L51.9186 12.4409L38.9983 28.8842H64.8487H64.8438ZM17.0947 62.5794L20.7267 77.0203H83.0864L86.7184 62.5794H76.1274V77.0203H66.4419V62.5794H56.7565V77.0203H47.0711V62.5794H37.3856V77.0203H27.7002V62.5794H17.1043H17.0947ZM14.6733 52.9522H27.7002V38.5114H37.3856V52.9522H47.0711V38.5114H56.7565V52.9522H66.4419V38.5114H76.1274V52.9522H89.1446L92.7766 38.5114H11.051L14.683 52.9522H14.6733Z" fill="white"/>
</svg>
