<svg width="77" height="111" viewBox="0 0 77 111" fill="none" xmlns="http://www.w3.org/2000/svg">
<path d="M7.051 0.145508H45.397C46.7995 0.145508 47.2835 0.194962 47.817 0.31585C48.3425 0.432443 48.8446 0.636793 49.302 0.920294C49.775 1.20603 50.1545 1.50825 51.161 2.48635L74.525 25.2024C75.5535 26.208 75.8725 26.5926 76.175 27.0707C76.4755 27.5353 76.6932 28.0484 76.8185 28.5873C76.945 29.1368 77 29.6313 77 31.071V103C77 105.445 76.747 106.33 76.263 107.231C75.7932 108.114 75.0689 108.835 74.184 109.302C73.2875 109.786 72.402 110.039 69.949 110.039H7.051C4.598 110.039 3.7125 109.786 2.816 109.302C1.93029 108.834 1.20596 108.11 0.736999 107.225C0.252999 106.33 0 105.445 0 102.994V7.19001C0 4.73927 0.252999 3.85459 0.736999 2.95891C1.20596 2.07402 1.93029 1.35035 2.816 0.881829C3.7125 0.398275 4.598 0.145508 7.051 0.145508ZM11 11.1354V99.0543H66V32.2579L44.286 11.1354H11ZM29.051 55.0949H47.949C50.402 55.0949 51.2875 55.3476 52.184 55.8312C53.0805 56.3092 53.7845 57.0126 54.263 57.9083C54.747 58.8039 55 59.6886 55 62.1394V81.02C55 83.4707 54.747 84.3554 54.263 85.2511C53.794 86.136 53.0697 86.8596 52.184 87.3281C51.2875 87.8117 50.402 88.0645 47.949 88.0645H29.051C26.598 88.0645 25.7125 87.8117 24.816 87.3281C23.9303 86.8596 23.206 86.136 22.737 85.2511C22.253 84.3554 22 83.4707 22 81.02V62.1394C22 59.6886 22.253 58.8039 22.737 57.9083C23.206 57.0234 23.9303 56.2997 24.816 55.8312C25.7125 55.3476 26.598 55.0949 29.051 55.0949Z" fill="white"/>
</svg>
